<svg xmlns="http://www.w3.org/2000/svg" viewBox="0 0 64 64">
  <rect width="64" height="64" rx="14" fill="#0D1B3D"/>
  <path d="M10 35V23.5c0-2.1.9-4 2.5-5.3L30.1 4.4c1.1-.9 2.7-.9 3.8 0l17.6 13.8c1.6 1.3 2.5 3.2 2.5 5.3V35M47 14V8h5v10" fill="none" stroke="#fff" stroke-width="4.5" stroke-linecap="round" stroke-linejoin="round"/>
  <path d="M27.3 30.5V21a4.7 4.7 0 0 1 9.4 0v8.4" fill="#DCECCF"/>
  <circle cx="34.2" cy="25.5" r="1.2" fill="#0D1B3D"/>
  <path d="M38.5 29.2c-11.5 2.2-21.1 5.4-25.7 9-4.8 3.8-1.8 7.8 5 9.7 5.8 1.7 15 1.9 25.5 1-9.4-2.4-15.3-5.2-15.5-8.6-.2-3.7 4.4-7.4 10.7-11.1Z" fill="#A8D27D"/>
</svg>
